<?xml version="1.0" encoding="UTF-8" standalone="no"?><!DOCTYPE svg PUBLIC "-//W3C//DTD SVG 1.1//EN" "http://www.w3.org/Graphics/SVG/1.1/DTD/svg11.dtd"><svg width="100%" height="100%" viewBox="0 0 1000 1000" version="1.1" xmlns="http://www.w3.org/2000/svg" xmlns:xlink="http://www.w3.org/1999/xlink" xml:space="preserve" xmlns:serif="http://www.serif.com/" style="fill-rule:evenodd;clip-rule:evenodd;stroke-linejoin:round;stroke-miterlimit:2;"><g id="Layer-2" serif:id="Layer 2"><path d="M1000.12,499.852c0,276.281 -223.972,500.252 -500.251,500.252c-276.282,0 -500.253,-223.971 -500.253,-500.252c0,-276.282 223.971,-500.253 500.253,-500.253c276.279,0 500.251,223.971 500.251,500.253" style="fill-rule:nonzero;"/></g><g id="Layer-1" serif:id="Layer 1"><path d="M313.5,735.266c-55.742,0 -100.5,-45.191 -100.5,-100.932l0,-297.485c0,-36.804 19.838,-70.689 52.085,-88.432c32.242,-17.74 71.498,-16.523 102.583,3.178l126.536,80.215l137.994,-81.79c47.957,-28.421 109.854,-12.588 138.278,35.372c28.42,47.956 12.577,109.868 -35.38,138.287l-191.248,113.333c-32.666,19.356 -73.658,18.742 -105.72,-1.577l-24.128,-15.137l0,114.036c0,55.741 -44.757,100.932 -100.5,100.932" style="fill:#fff;fill-rule:nonzero;"/><path d="M786.774,632.367c0,59.518 -48.257,107.774 -107.779,107.774c-59.525,0 -107.783,-48.256 -107.783,-107.774c0,-59.53 48.258,-107.785 107.783,-107.785c59.522,0 107.779,48.255 107.779,107.785" style="fill:#fff;fill-rule:nonzero;"/></g></svg>